<svg width="368" height="48" viewBox="0 0 368 48" fill="none" xmlns="http://www.w3.org/2000/svg">
<path d="M345.349 45.7285V27.5259H367.769V45.7285H345.349Z" fill="#D31A74"/>
<path d="M0 0.208122H47.671C50.3766 0.208122 52.6178 0.733597 54.3946 1.78455C56.1714 2.79507 57.5041 4.10876 58.3925 5.7256C59.3212 7.34244 59.7856 9.04013 59.7856 10.8187C59.7856 12.5972 59.3212 14.3353 58.3925 16.033C57.4637 17.6902 56.0503 19.0443 54.1523 20.0953C52.2948 21.1462 49.9526 21.6717 47.1259 21.6717C47.1259 21.6717 47.1057 21.6717 47.0653 21.6717C47.0653 21.6717 47.0653 21.6919 47.0653 21.7323C47.1057 21.7323 47.1259 21.7323 47.1259 21.7323C50.3968 21.7323 53.1024 22.3185 55.2427 23.4907C57.3829 24.6629 58.978 26.1585 60.0279 27.9774C61.0779 29.7963 61.6028 31.7164 61.6028 33.7374C61.6028 35.233 61.3 36.6881 60.6942 38.1029C60.1289 39.5176 59.2607 40.8111 58.0896 41.9833C56.9185 43.1151 55.4648 44.0246 53.7283 44.7117C51.9919 45.3585 49.9728 45.6818 47.671 45.6818H0C0 42.9332 0 40.2048 0 37.4966C0 34.7479 0 31.9993 0 29.2507C0 26.502 0 23.7736 0 21.0654C0 18.3168 0 15.5681 0 12.8195C0 10.7176 0 8.61571 0 6.51381C0 4.41192 0 2.31002 0 0.208122ZM23.8658 24.097C23.8658 24.5416 23.8658 24.9862 23.8658 25.4309C23.8658 25.8755 23.8658 26.3201 23.8658 26.7648C23.8658 27.0881 23.8658 27.4115 23.8658 27.7349C23.8658 28.0178 23.8658 28.3008 23.8658 28.5837C23.8658 28.8667 23.8658 29.1496 23.8658 29.4326C23.8658 29.473 23.8658 29.4932 23.8658 29.4932C23.8658 29.4932 23.886 29.4932 23.9264 29.4932H32.5278C33.6181 29.4932 34.4257 29.2102 34.9507 28.6444C35.516 28.0785 35.7987 27.4317 35.7987 26.7041C35.7987 26.3403 35.7381 26.017 35.617 25.734C35.4958 25.4107 35.3141 25.1277 35.0718 24.8852C34.8699 24.6022 34.5872 24.4001 34.2238 24.2789C33.9007 24.1172 33.5171 24.0363 33.0729 24.0363H23.9264C23.9264 24.0363 23.9062 24.0566 23.8658 24.097ZM23.9264 15.5479C23.886 15.5479 23.8658 15.5681 23.8658 15.6086C23.8658 15.8511 23.8658 16.134 23.8658 16.4574C23.8658 16.7403 23.8658 17.0435 23.8658 17.3669C23.8658 17.6498 23.8658 17.953 23.8658 18.2763C23.8658 18.721 23.8658 19.1858 23.8658 19.6709C23.8658 20.1155 23.8658 20.5399 23.8658 20.9441C23.8658 20.9846 23.8658 21.0048 23.8658 21.0048C23.8658 21.0048 23.886 21.0048 23.9264 21.0048H32.2249C32.9518 21.0048 33.5575 20.8835 34.0421 20.641C34.5267 20.358 34.8901 20.0145 35.1324 19.6102C35.3747 19.1656 35.4958 18.7008 35.4958 18.2157C35.4958 17.5286 35.2535 16.9222 34.769 16.3968C34.3248 15.8309 33.6584 15.5479 32.77 15.5479H23.9264Z" fill="#D31A74"/>
<path d="M233.467 45.7043C233.467 43.5105 233.467 41.337 233.467 39.1838C233.467 36.99 233.467 34.8165 233.467 32.6633C233.467 30.4695 233.467 28.296 233.467 26.1428C233.467 25.371 233.264 24.7006 232.859 24.1319C232.453 23.5631 231.905 23.0959 231.215 22.7303C230.525 22.3646 229.754 22.1006 228.902 21.9381C228.05 21.7349 227.157 21.6334 226.224 21.6334C223.87 21.6334 222.105 22.1006 220.928 23.035C219.792 23.9694 219.224 25.0053 219.224 26.1428C219.224 26.996 219.467 27.7679 219.954 28.4585C220.482 29.1492 221.253 29.7179 222.267 30.1648C223.323 30.5711 224.641 30.7742 226.224 30.7742C227.928 30.7742 229.45 30.4695 230.789 29.8601C232.128 29.2507 233.001 28.2554 233.406 26.8741L228.537 45.7043C227.238 46.0293 226.001 46.2527 224.824 46.3746C223.647 46.5371 222.288 46.6184 220.746 46.6184C217.621 46.6184 214.679 46.1918 211.92 45.3386C209.16 44.4449 206.726 43.1448 204.615 41.4385C202.546 39.7322 200.902 37.6603 199.685 35.2228C198.508 32.7852 197.92 30.0023 197.92 26.8741C197.92 24.1928 198.346 21.7959 199.198 19.6833C200.05 17.5301 201.207 15.6613 202.668 14.0769C204.169 12.4925 205.894 11.1722 207.842 10.1159C209.789 9.0596 211.859 8.28771 214.05 7.8002C216.282 7.27206 218.534 7.00799 220.807 7.00799C221.74 7.00799 222.694 7.04861 223.667 7.12987C224.641 7.21112 225.595 7.333 226.528 7.4955C227.462 7.65801 228.334 7.88145 229.146 8.16583C229.998 8.45021 230.769 8.79553 231.459 9.20179C232.189 9.60805 232.818 10.0753 233.346 10.6034C233.386 10.644 233.406 10.6643 233.406 10.6643C233.447 10.6237 233.467 10.5831 233.467 10.5425C233.467 8.91741 233.467 7.17049 233.467 5.3017C233.467 3.39227 233.467 1.62504 233.467 0H254.528C254.528 3.9001 254.528 7.82051 254.528 11.7612C254.528 15.6613 254.528 19.5614 254.528 23.4615C254.528 27.1585 254.528 30.8555 254.528 34.5524C254.528 38.2494 254.528 41.9667 254.528 45.7043H233.467Z" fill="#D31A74"/>
<path d="M174.044 45.7533C174.044 42.5842 174.044 39.3744 174.044 36.1241C174.044 32.8737 174.044 29.664 174.044 26.4949C174.044 25.3167 173.739 24.4838 173.128 23.9962C172.559 23.5087 171.867 23.2446 171.053 23.2039C170.24 23.1633 169.487 23.2649 168.795 23.5087C168.144 23.7524 167.738 23.9962 167.575 24.24L172.457 8.57734C173.922 7.92727 175.488 7.43972 177.156 7.11468C178.824 6.78965 180.472 6.62713 182.099 6.62713C184.378 6.62713 186.493 6.99279 188.446 7.72412C190.44 8.45545 192.047 9.61339 193.267 11.1979C194.528 12.7825 195.159 14.8952 195.159 17.5361V45.7533H174.044ZM146.459 45.7533C146.459 43.153 146.459 40.5527 146.459 37.9524C146.459 35.3115 146.459 32.6909 146.459 30.0906C146.459 27.4497 146.459 24.8291 146.459 22.2288C146.459 19.8317 146.459 17.4549 146.459 15.0984C146.459 12.7012 146.459 10.3244 146.459 7.9679C148.819 7.9679 151.159 7.9679 153.478 7.9679C155.837 7.9679 158.197 7.9679 160.557 7.9679C162.916 7.9679 165.256 7.9679 167.575 7.9679C167.575 9.43056 167.575 10.8323 167.575 12.173C167.575 13.4732 167.575 14.7936 167.575 16.1344C167.575 17.4345 167.575 18.755 167.575 20.0958C167.575 21.3959 167.575 22.7773 167.575 24.24C167.575 24.7682 167.575 25.2963 167.575 25.8245C167.575 26.3121 167.575 26.8403 167.575 27.4091C167.575 30.4157 167.575 33.5035 167.575 36.6726C167.575 39.8417 167.575 42.8686 167.575 45.7533H146.459Z" fill="#D31A74"/>
<path d="M116.957 31.9632C119.112 31.9632 120.779 31.5775 121.959 30.806C123.138 30.0345 123.748 28.9789 123.788 27.6389L142.636 33.7904C141.904 36.3484 140.339 38.6831 137.939 40.7944C135.581 42.8652 132.592 44.5096 128.973 45.7277C125.354 46.9458 121.308 47.5549 116.835 47.5549C113.012 47.5549 109.434 47.1286 106.1 46.2759C102.806 45.4232 99.8984 44.1442 97.3772 42.4389C94.8967 40.6929 92.9448 38.5206 91.5216 35.922C90.0983 33.3234 89.3867 30.2985 89.3867 26.8472C89.3867 23.3959 90.0983 20.371 91.5216 17.7723C92.9448 15.1737 94.8967 13.0217 97.3772 11.3164C99.8984 9.57046 102.826 8.27115 106.161 7.41848C109.495 6.56581 113.053 6.13947 116.835 6.13947C120.698 6.13947 124.236 6.56581 127.448 7.41848C130.701 8.27115 133.487 9.59076 135.805 11.3773C138.163 13.1233 139.973 15.3564 141.233 18.0769C142.535 20.7567 143.185 23.944 143.185 27.6389H109.942C109.942 27.6389 109.922 27.6389 109.881 27.6389C109.881 27.6389 109.881 27.6593 109.881 27.6999C109.881 28.3089 110.044 28.8774 110.369 29.4052C110.695 29.933 111.142 30.4 111.711 30.806C112.321 31.1714 113.053 31.4557 113.907 31.6587C114.802 31.8617 115.818 31.9632 116.957 31.9632ZM116.835 21.5484C114.842 21.5484 113.195 21.9139 111.894 22.6447C110.593 23.335 109.942 24.3298 109.942 25.6291C109.942 25.6697 109.942 25.7103 109.942 25.7509C109.983 25.7509 110.003 25.7509 110.003 25.7509H123.605C123.646 25.7509 123.666 25.7509 123.666 25.7509C123.666 25.7103 123.666 25.6697 123.666 25.6291C123.666 24.9794 123.483 24.411 123.117 23.9237C122.792 23.3959 122.325 22.9696 121.715 22.6447C121.105 22.2793 120.373 22.0154 119.519 21.853C118.705 21.65 117.811 21.5484 116.835 21.5484Z" fill="#D31A74"/>
<path d="M64.9326 0.208108C64.9326 2.07977 64.9326 11.5647 64.9326 13.3957C64.9326 15.2673 64.9326 17.1187 64.9326 18.9496C64.9326 20.8213 64.9326 22.6726 64.9326 24.5036C64.9326 25.2767 64.9326 26.0497 64.9326 26.8228C64.9326 27.5959 64.9326 28.369 64.9326 29.142C67.2933 29.142 69.6336 29.142 71.9536 29.142C74.3143 29.142 76.6749 29.142 79.0356 29.142C81.3963 29.142 83.7366 29.142 86.0566 29.142C86.0566 26.7821 86.0566 24.4222 86.0566 22.0623C86.0566 19.7024 86.0566 17.3221 86.0566 14.9215C86.0566 12.5616 86.0566 2.56802 86.0566 0.208106L64.9326 0.208108ZM64.9326 29.142C64.9326 31.9088 64.9326 34.6757 64.9326 37.4425C64.9326 40.2093 64.9326 42.9557 64.9326 45.6818L86.0566 45.6818C86.0566 44.3391 86.0566 42.9964 86.0566 41.6537C86.0566 40.311 86.0566 38.9683 86.0566 37.6255C86.0566 36.2828 86.0566 34.9401 86.0566 33.5974C86.0566 33.5974 86.0362 33.5771 85.9955 33.5364C82.4952 32.804 78.9745 32.0716 75.4335 31.3392C71.9332 30.6068 68.4329 29.8744 64.9326 29.142Z" fill="#D31A74"/>
<path d="M324.945 23.1534C325.466 21.1589 325.965 19.1861 326.442 17.235C326.963 15.2838 327.462 13.3327 327.939 11.3816C328.46 9.3871 328.959 7.41429 329.437 5.46316H342.13V23.1534H324.945ZM302.617 28.8117C302.617 25.0828 302.617 21.1589 302.617 17.0399C302.617 12.9208 302.617 9.01855 302.617 5.33309L324.88 0C324.88 2.12456 324.88 4.29248 324.88 6.50376C324.88 8.71504 324.88 10.9263 324.88 13.1376C324.88 14.7419 324.88 16.3461 324.88 17.9504C324.88 19.5546 324.88 21.1372 324.88 22.6981C324.88 22.7415 324.88 22.7632 324.88 22.7632C324.88 22.7632 324.88 22.7848 324.88 22.8282C324.88 23.652 325.053 24.3674 325.401 24.9744C325.791 25.5815 326.312 26.1018 326.963 26.5353C327.657 26.9256 328.46 27.2291 329.371 27.4459C330.283 27.6627 331.303 27.7711 332.431 27.7711C333.689 27.7711 334.97 27.5759 336.272 27.1857C337.573 26.7955 338.745 26.2535 339.787 25.5598C340.872 24.866 341.653 24.0639 342.13 23.1534V42.9248C340.264 44.399 337.856 45.483 334.905 46.1767C331.954 46.9138 329.003 47.2823 326.052 47.2823C321.582 47.2823 317.567 46.5669 314.009 45.1361C310.494 43.6619 307.716 41.559 305.677 38.8275C303.637 36.0525 302.617 32.7139 302.617 28.8117Z" fill="#D31A74"/>
<path fill-rule="evenodd" clip-rule="evenodd" d="M296.745 12.4975L297.701 6.88045L295.821 5.32317L286.932 5.32317V5.32321L278.043 5.32321L276.163 6.88049L280.406 31.7971L276.163 45.7285H286.974V45.7284H297.701L293.458 31.797L294.325 26.7044H297.757L300.619 16.3716L296.745 12.4975ZM296.105 16.2533L295.046 22.4745H296.18L297.125 17.045L296.105 16.2533Z" fill="#D31A74"/>
<rect x="283.779" y="3.64574" width="6.28385" height="1.71378" fill="#D31A74"/>
</svg>
