<svg xmlns="http://www.w3.org/2000/svg" width="145" height="53" fill="none"><path fill="#635D55" d="M133.028 51.516v-9.722h11.975v9.722h-11.975ZM0 .119h27.158c1.541 0 2.818.299 3.83.898 1.013.575 1.772 1.324 2.278 2.245.529.921.794 1.888.794 2.901 0 1.014-.265 2.004-.794 2.971-.53.944-1.334 1.716-2.416 2.314-1.058.599-2.392.898-4.003.898h-.034v.035h.034c1.864 0 3.405.334 4.624 1.002 1.22.667 2.128 1.52 2.727 2.556a6.465 6.465 0 0 1 .897 3.281 6.26 6.26 0 0 1-.518 2.487 6.565 6.565 0 0 1-1.484 2.21c-.667.645-1.495 1.164-2.484 1.555-.99.369-2.14.553-3.451.553H0V.119Zm13.596 13.609v3.074H18.531c.621 0 1.081-.161 1.38-.483.322-.323.483-.691.483-1.106 0-.207-.034-.391-.103-.552a1.341 1.341 0 0 0-.31-.484.939.939 0 0 0-.484-.345 1.45 1.45 0 0 0-.655-.139H13.63l-.035.035Zm.035-4.87c-.023 0-.035.011-.035.034v3.074H18.358c.414 0 .76-.069 1.036-.207.276-.161.483-.357.62-.587.139-.253.208-.518.208-.795 0-.391-.138-.736-.414-1.036-.253-.322-.633-.483-1.14-.483h-5.037ZM133.005 26.038V14.893c0-.44-.116-.821-.347-1.145a2.646 2.646 0 0 0-.936-.799 4.657 4.657 0 0 0-1.318-.451 6.556 6.556 0 0 0-1.525-.174c-1.341 0-2.347.267-3.017.799-.648.532-.971 1.122-.971 1.77 0 .486.138.926.416 1.32.3.393.74.717 1.318.972.601.231 1.352.347 2.254.347.97 0 1.837-.174 2.6-.52.763-.348 1.26-.915 1.491-1.702l-2.774 10.728a15.2 15.2 0 0 1-2.115.381c-.67.093-1.445.14-2.323.14-1.78 0-3.456-.244-5.028-.73-1.572-.509-2.96-1.25-4.162-2.222a10.762 10.762 0 0 1-2.808-3.54c-.671-1.39-1.006-2.975-1.006-4.757 0-1.527.243-2.893.728-4.097.486-1.226 1.144-2.29 1.977-3.193a11.75 11.75 0 0 1 2.947-2.257 13.568 13.568 0 0 1 3.537-1.32c1.272-.3 2.555-.45 3.849-.45a19.605 19.605 0 0 1 3.26.277c.532.093 1.029.22 1.491.382a6.87 6.87 0 0 1 1.318.59 4.828 4.828 0 0 1 1.109.833c.024-.023.035-.046.035-.069V0h11.998V26.038h-11.998ZM99.006 26.024V15.053c0-.671-.174-1.146-.522-1.424a1.91 1.91 0 0 0-1.182-.45 3.335 3.335 0 0 0-1.286.173c-.371.139-.603.277-.696.416l2.782-8.923c.834-.37 1.726-.648 2.677-.833.95-.185 1.889-.278 2.816-.278 1.298 0 2.503.209 3.616.625 1.135.417 2.051 1.077 2.746 1.98.719.902 1.078 2.106 1.078 3.61v16.075h-12.03Zm-15.715 0V4.498H95.32V26.024H83.291ZM66.63 18.21c1.227 0 2.177-.22 2.849-.66.672-.44 1.02-1.041 1.042-1.804L81.26 19.25c-.417 1.457-1.31 2.788-2.676 3.99-1.343 1.18-3.046 2.117-5.108 2.81-2.062.695-4.367 1.042-6.915 1.042-2.178 0-4.216-.243-6.116-.729-1.876-.486-3.533-1.214-4.969-2.186a10.891 10.891 0 0 1-3.336-3.712c-.81-1.48-1.216-3.204-1.216-5.17 0-1.966.405-3.69 1.216-5.17a10.577 10.577 0 0 1 3.336-3.678c1.436-.995 3.104-1.735 5.004-2.22 1.9-.487 3.927-.73 6.08-.73 2.202 0 4.217.243 6.047.73 1.854.485 3.44 1.237 4.76 2.255a9.785 9.785 0 0 1 3.094 3.816c.74 1.527 1.112 3.343 1.112 5.448H62.597v.034c0 .347.093.671.279.972.185.3.44.567.764.798.348.208.765.37 1.251.486.51.115 1.089.173 1.737.173Zm-.07-5.934c-1.135 0-2.073.208-2.815.624-.741.394-1.112.96-1.112 1.7v.07h7.819v-.07c0-.37-.104-.693-.313-.97a2.037 2.037 0 0 0-.8-.73 3.798 3.798 0 0 0-1.25-.45 6.308 6.308 0 0 0-1.53-.174ZM36.992.118v16.483H49.026V.119H36.992Zm0 16.484v9.422h12.034V19.14l-.035-.035c-1.994-.417-4-.834-6.017-1.252l-5.982-1.251ZM122.131 39.458c.278-1.065.544-2.119.799-3.16.278-1.043.545-2.085.8-3.127.278-1.065.545-2.12.8-3.161h6.779v9.448h-9.178Zm-11.926 3.022V29.94l11.891-2.848v12.193c0 .44.093.822.278 1.146.209.324.487.602.834.834.371.208.8.37 1.287.486a7.078 7.078 0 0 0 1.634.174c.672 0 1.356-.105 2.051-.313a6.98 6.98 0 0 0 1.878-.868c.579-.371.996-.8 1.251-1.286v10.56c-.996.788-2.283 1.367-3.859 1.737-1.576.394-3.152.59-4.728.59-2.388 0-4.532-.381-6.432-1.145-1.878-.788-3.361-1.911-4.451-3.37-1.089-1.482-1.634-3.265-1.634-5.35Z"/><path fill="#635D55" fill-rule="evenodd" d="m98.342 44.075-2.267-13.308 1.004-.832h9.496l1.004.832-.51 3 2.069 2.069-1.529 5.519h-1.833l-.463 2.72 2.266 7.441H96.075l2.267-7.44Zm7.819-4.98h.606l.505-2.9-.545-.422-.566 3.322Z" clip-rule="evenodd"/><path fill="#635D55" d="M100.144 29.039h3.356v.915h-3.356z"/></svg>